# xmcd
# 
# Track frame offsets:
#     150
#     21732
#     33022
#     61200
#     82860
#     98470
#     117660
#     136747
#     158250
#     182987
# 
# Disc length: 2685
# 
# Revision: 13
# Processed by: cddbd v1.5.2PL0 Copyright (c) Steve Scherf et al.
# Submitted via: fre:ac v1.0.17
# 
DISCID=710a7b0a
DTITLE=Alice in Chains - Greatest Hits
DYEAR=2001
DGENRE=Hard Rock
TTITLE0=Man in the Box
TTITLE1=Them Bones
TTITLE2=Rooster
TTITLE3=Angry Chair
TTITLE4=Would?
TTITLE5=No Excuses
TTITLE6=I Stay Away
TTITLE7=Grind
TTITLE8=Heaven Beside You
TTITLE9=Again
EXTD=0\n\n\n YEAR: 2001
EXTT0=
EXTT1=
EXTT2=
EXTT3=
EXTT4=
EXTT5=
EXTT6=
EXTT7=
EXTT8=
EXTT9=
PLAYORDER=
